<?xml version="1.0" encoding="UTF-8"?>
<svg id="Capa_2" data-name="Capa 2" xmlns="http://www.w3.org/2000/svg" viewBox="0 0 123.06 23.67">
  <defs>
    <style>
      .cls-1 {
        fill: #ffffff;
      }
    </style>
  </defs>
  <g id="Capa_1-2" data-name="Capa 1">
    <path class="cls-1" d="M9.71,0v5.46h9.85v1.34c.64-.67,1.2-1.12,1.69-1.37.5-.26,1.1-.39,1.79-.39.91,0,1.87.3,2.86.89l-1.59,3.17c-.66-.47-1.3-.71-1.93-.71-1.89,0-2.83,1.43-2.83,4.28v7.78h-3.47v-11.77h-6.39v11.77h-3.47v-11.77h-3.9v-3.23h3.9V0H0v23.67h42.15V0H9.71ZM38.25,10.72c-.79-.97-1.5-1.63-2.13-1.99-.62-.37-1.34-.55-2.17-.55-1.3,0-2.39.46-3.25,1.37-.86.91-1.29,2.06-1.29,3.43s.42,2.56,1.25,3.47c.84.9,1.91,1.36,3.22,1.36.83,0,1.57-.18,2.2-.54.62-.35,1.34-1.03,2.17-2.03v4.57c-1.41.73-2.81,1.09-4.22,1.09-2.32,0-4.26-.75-5.82-2.25-1.56-1.51-2.34-3.38-2.34-5.62s.79-4.13,2.37-5.67c1.58-1.54,3.52-2.31,5.82-2.31,1.48,0,2.87.35,4.19,1.06v4.61Z"/>
    <g>
      <path class="cls-1" d="M52.31,12.69l4.1,5.65h-2.45l-3.79-5.43h-.36v5.43h-2V5.09h2.34c1.75,0,3.02.33,3.79.99.86.73,1.29,1.7,1.29,2.9,0,.94-.27,1.75-.81,2.42-.54.68-1.25,1.11-2.13,1.3M49.82,11.17h.64c1.89,0,2.84-.72,2.84-2.17,0-1.36-.92-2.03-2.76-2.03h-.71v4.21Z"/>
      <path class="cls-1" d="M65.36,14.62h-5.99c.05.69.27,1.23.67,1.64.4.4.9.6,1.52.6.48,0,.88-.11,1.19-.34.31-.23.66-.65,1.06-1.27l1.63.91c-.25.43-.52.8-.8,1.1-.28.31-.58.56-.9.76-.32.2-.67.34-1.04.43-.37.09-.78.14-1.21.14-1.25,0-2.25-.4-3-1.2-.76-.81-1.13-1.88-1.13-3.21s.37-2.39,1.1-3.21c.74-.81,1.72-1.21,2.94-1.21s2.2.39,2.92,1.18c.71.78,1.06,1.86,1.06,3.24v.45ZM63.38,13.04c-.27-1.03-.92-1.55-1.95-1.55-.23,0-.45.04-.66.11-.21.07-.39.17-.56.31-.17.13-.31.3-.43.49-.12.19-.21.4-.27.64h3.88Z"/>
      <path class="cls-1" d="M73.98,10.34v2.57c-.44-.54-.84-.91-1.18-1.11-.34-.21-.75-.31-1.21-.31-.73,0-1.33.25-1.81.76-.48.51-.72,1.15-.72,1.91s.23,1.43.7,1.93c.47.5,1.07.76,1.79.76.46,0,.87-.1,1.23-.3.34-.19.75-.57,1.21-1.13v2.55c-.78.41-1.57.61-2.35.61-1.29,0-2.38-.42-3.25-1.25-.87-.84-1.3-1.89-1.3-3.13s.44-2.3,1.32-3.16c.88-.86,1.96-1.29,3.24-1.29.82,0,1.6.2,2.34.59"/>
      <path class="cls-1" d="M75.86,9.98h1.93v.75c.35-.37.67-.63.94-.76.28-.14.61-.21,1-.21.51,0,1.04.17,1.6.5l-.88,1.77c-.37-.26-.72-.39-1.07-.39-1.05,0-1.58.8-1.58,2.39v4.34h-1.93v-8.36Z"/>
      <path class="cls-1" d="M84.63,9.98v4.8c0,1.38.55,2.08,1.64,2.08s1.64-.69,1.64-2.08v-4.8h1.93v4.84c0,.67-.08,1.25-.25,1.73-.16.43-.44.83-.83,1.18-.65.57-1.48.85-2.49.85s-1.83-.28-2.48-.85c-.4-.35-.68-.74-.85-1.18-.16-.39-.24-.97-.24-1.73v-4.84h1.93Z"/>
      <path class="cls-1" d="M91.99,6.5c0-.34.12-.63.37-.88.25-.25.54-.37.88-.37s.65.12.89.37c.25.24.37.54.37.88s-.12.65-.37.89c-.24.25-.53.37-.88.37s-.65-.12-.89-.37c-.25-.25-.37-.55-.37-.9M94.21,18.34h-1.93v-8.36h1.93v8.36Z"/>
      <polygon class="cls-1" points="98.65 11.78 98.65 18.34 96.72 18.34 96.72 11.78 95.89 11.78 95.89 9.98 96.72 9.98 96.72 6.92 98.65 6.92 98.65 9.98 100.15 9.98 100.15 11.78 98.65 11.78"/>
      <path class="cls-1" d="M101.46,9.98h1.93v.77c.37-.39.69-.65.95-.79.28-.14.63-.21,1.06-.21.94,0,1.69.41,2.24,1.24.61-.82,1.43-1.24,2.46-1.24,1.88,0,2.82,1.14,2.82,3.43v5.17h-1.94v-4.64c0-.8-.1-1.37-.29-1.7-.2-.34-.53-.51-.99-.51-.53,0-.92.2-1.16.6-.24.4-.37,1.04-.37,1.93v4.32h-1.94v-4.62c0-1.49-.43-2.23-1.29-2.23-.54,0-.94.2-1.19.61-.25.41-.37,1.05-.37,1.92v4.32h-1.93v-8.36Z"/>
      <path class="cls-1" d="M122.99,14.62h-5.99c.05.69.27,1.23.67,1.64.39.4.9.6,1.52.6.48,0,.88-.11,1.19-.34.31-.23.66-.65,1.06-1.27l1.63.91c-.25.43-.52.8-.8,1.1-.28.31-.58.56-.9.76s-.67.34-1.04.43c-.37.09-.78.14-1.21.14-1.25,0-2.25-.4-3-1.2-.76-.81-1.13-1.88-1.13-3.21s.37-2.39,1.1-3.21c.74-.81,1.72-1.21,2.94-1.21s2.2.39,2.92,1.18c.71.78,1.06,1.86,1.06,3.24v.45ZM121,13.04c-.27-1.03-.92-1.55-1.95-1.55-.23,0-.45.04-.66.11-.21.07-.39.17-.56.31-.17.13-.31.3-.43.49-.12.19-.21.4-.27.64h3.88Z"/>
    </g>
  </g>
</svg>
